<?xml version="1.0" encoding="utf-8"?>
<!-- Generator: Adobe Illustrator 22.1.0, SVG Export Plug-In . SVG Version: 6.00 Build 0)  -->
<svg version="1.1" id="Camada_1" xmlns="http://www.w3.org/2000/svg" xmlns:xlink="http://www.w3.org/1999/xlink" x="0px" y="0px"
	 viewBox="0 0 431.3 90.3" style="enable-background:new 0 0 431.3 90.3;" xml:space="preserve">
<style type="text/css">
	.st0{fill:#FFFFFF;}
</style>
<title>LogoVGRe</title>
<path class="st0" d="M96,90.3c-5.9-7.1-13.6-10.5-22.7-10.6c-5.4-0.1-10.3,1.8-15.1,4.1c-0.7,0.5-1.7,0.3-2.3-0.3
	c-4.1-3.7-8.3-7.3-12.4-10.9c-0.3-0.2-1-0.4-0.2-1c5-3.9,10.8-6.9,16.9-8.8c7.1-1.9,14.5-2.3,21.7-1.1c5.4,0.8,10.6,2.2,15.6,4.4
	c4.3,1.9,5.8,4.6,5.4,9.3c-0.5,5.6-2.9,10.8-6.6,14.9H96z"/>
<path class="st0" d="M0,71.3c2.6-0.5,5.3-1,7.9-1.5c1.2-0.4,2.4-1,3.4-1.7c9.1-4.9,14-12.8,15.6-22.9c0.3-2,1-2.8,3-3.2
	c5-1,9.9-2.4,14.8-3.6c0.5-0.1,1-0.4,1,0.5C46,45.4,45.1,52,43,58.2c-2.2,6-5.5,11.5-9.8,16.2c-4.3,4.8-9.2,9-14.7,12.4
	c-2.5,1.7-5.7,1.7-8.2,0C6.1,84.1,2.8,80,1.1,75.3C0.9,74.2,0.5,73.1,0,72V71.3z"/>
<path class="st0" d="M73.9,56.3c-14.5-5.8-23.6-16.5-28.5-31.1c-1.6-4.9-2.6-10-3.1-15.1c-0.3-2.6,0.9-5.1,3.1-6.5
	c3.2-2.2,7-3.5,10.9-3.6c2.4-0.1,4.8,0,7.2,0.5c0.7,0.1,1.1,0.3,0.8,1.1s-0.5,2-0.8,3c-1,2.8-1.3,5.9-0.9,8.8
	c0.7,6.9,2.9,13.1,8,18.1c2.2,2.1,4.5,4.1,7,5.9c0.5,0.2,0.7,0.8,0.5,1.3c-1.3,5.7-2.5,11.4-3.8,17.1C74,56,74,56.2,73.9,56.3z"/>
<path class="st0" d="M383.7,69.4c-6.2,0-11.2-1.7-15.1-6c-6.3-6.8-5.6-17,1.6-23.3c6.9-6,19.2-6,26,0.1c4.6,4.2,6.7,9.4,5.4,15.5
	c-1.4,6.4-5.6,10.5-11.7,12.6C387.9,69.1,385.8,69.5,383.7,69.4z M393.5,52.6c0-6.1-4.1-10-10.5-10c-6,0-10.2,4.2-10.1,10.1
	c0.1,6.1,4.2,10,10.6,10c5.3,0.2,9.8-3.9,10-9.2C393.5,53.2,393.5,52.9,393.5,52.6z"/>
<path class="st0" d="M287.8,52.5c0-5,0-10.1,0-15.1c0-0.9,0.2-1.1,1.1-1.1c4.8,0,9.7-0.1,14.5,0c6.3,0.2,11.6,2.4,14.9,8.1
	c4.5,7.6,2.1,17.4-5.5,21.9c-1.7,1-3.6,1.7-5.6,2.1c-1.8,0.3-3.6,0.5-5.5,0.5c-4.3,0-8.6,0-13,0c-0.8,0-1-0.2-1-1
	C287.8,62.8,287.8,57.6,287.8,52.5z M296,52.5c0,3.1,0,6.2,0,9.2c0,1,0.3,1.2,1.2,1.2c1.2-0.1,2.3,0,3.5,0c1.8,0.1,3.7-0.2,5.4-0.8
	c4-1.6,5.7-4.9,5.8-9c0.2-5.1-2.1-9.3-7.5-10.5c-2.6-0.6-5.2-0.3-7.9-0.4c-0.7,0-0.5,0.5-0.5,0.9C296,46.3,296,49.4,296,52.5
	L296,52.5z"/>
<path class="st0" d="M172.6,58.5c0,1.9,0,3.8,0,5.7c0,0.6-0.2,1.2-0.8,1.5c-2.5,1.8-5.5,2.9-8.5,3.3c-5.5,0.9-10.9,0.5-15.8-2.3
	c-7.8-4.2-10.7-13.9-6.5-21.7c0.4-0.7,0.8-1.3,1.3-2c3-3.8,7.3-6.3,12.1-6.9c5.6-0.9,11.3-0.2,16.5,1.9c0.7,0.2,1.2,0.9,1.1,1.7
	c-0.1,1.6-0.1,3.2,0,4.8c0,1-0.1,1.3-1.1,0.8c-3.7-1.8-7.8-2.8-11.9-2.7c-4.1,0.2-7.7,1.4-9.9,5.1c-3,5.2-1.5,13.2,7.2,14.8
	c2.4,0.4,4.9,0.2,7.2-0.6c0.6-0.1,0.9-0.6,0.9-1.2c0-3,0.1-3-2.9-3c-1.9,0-1.9,0-1.9-1.8c0-1.1,0-2.2,0-3.4c0-0.6,0.1-0.8,0.8-0.8
	c3.8,0,7.6,0,11.4,0c0.7,0,0.8,0.3,0.8,0.8C172.6,54.5,172.6,56.5,172.6,58.5z"/>
<path class="st0" d="M199.8,53.7c1.7,1.1,3,2.6,3.7,4.4c1.7,3.5,3.3,7.1,5,10.8c-1.9,0-3.6,0-5.2,0c-1.3,0-2.8,0.5-3.7-0.2
	s-1.1-2.1-1.6-3.3c-1-2.2-1.9-4.4-3.1-6.5c-1.1-2.2-3.4-3.6-5.9-3.3c-0.8,0.1-1,0.2-1,1c0,3.7,0,7.4,0,11.2c0,0.8-0.1,1.1-1,1.1
	c-2.1-0.1-4.2,0-6.2,0c-0.7,0-1-0.1-1-0.9c0-10.3,0-20.6,0-30.9c0-0.7,0.2-0.9,0.9-0.8c5,0,9.9-0.1,14.9,0
	c6.6,0.1,11.3,6.3,9.2,12.2C204,50.6,202.9,51.8,199.8,53.7z M188,46v3c0,0.3-0.1,0.7,0.4,0.7c2-0.1,4.1,0.3,6.1-0.4
	c1.5-0.5,2.5-2,2.3-3.5c0-1.6-1.1-3-2.7-3.3c-0.9-0.2-1.7-0.3-2.6-0.2c-1.1,0-2.7-0.5-3.3,0.2s-0.2,2.1-0.2,3.2V46z"/>
<path class="st0" d="M325.9,46.8c0-3.2,0-6.4,0-9.6c0-0.8,0.2-1,1-1c2.1,0,4.2,0.1,6.2,0c0.9,0,1,0.3,1,1.1c0,5.7,0.1,11.4,0,17.2
	s4,8.7,9.3,8.1c4.6-0.5,7-3.4,7-8c0-5.7,0-11.4,0-17.2c0-0.9,0.2-1.2,1.2-1.2c2.1,0.1,4.2,0,6.2,0c0.6,0,0.9,0.1,0.9,0.8
	c-0.1,6.5,0.1,13-0.2,19.4c-0.4,7.2-4.8,11.7-12,12.7c-3.8,0.6-7.7,0.4-11.4-0.7c-5.5-1.5-9.2-6.5-9.2-12.2
	C325.9,53,325.9,49.9,325.9,46.8L325.9,46.8z"/>
<path class="st0" d="M212.3,52.6c0-5.1,0-10.2,0-15.2c0-0.8,0.2-1.1,1.1-1.1c7.3,0,14.6,0,21.8,0c0.9,0,1.1,0.2,1,1.1
	c-0.1,1.3-0.1,2.6,0,3.8c0,0.9-0.2,1.2-1.1,1.1c-4.4-0.1-8.9,0-13.3,0c-1,0-1.4,0.2-1.3,1.2c0.1,1.5,0.1,3,0,4.6c0,0.8,0.2,1,1,1
	c4.3,0,8.6,0,12.8,0c0.9,0,1.2,0.2,1.1,1.1c-0.1,1.3-0.1,2.7,0,4c0,0.8-0.2,1-1,1c-4.3,0-8.6,0-12.8,0c-0.9,0-1.1,0.2-1.1,1.1
	c0.1,1.9,0.1,3.8,0,5.6c0,0.9,0.2,1.2,1.2,1.2c4.6-0.1,9.1,0,13.7,0c0.9,0,1.2,0.2,1.1,1.1c-0.1,1.3-0.1,2.6,0,3.8
	c0,0.8-0.1,1.1-1,1.1c-7.4,0-14.8,0-22.2,0c-0.8,0-1-0.3-1-1C212.3,62.8,212.3,57.7,212.3,52.6z"/>
<path class="st0" d="M265,44.7c-2.4-1.1-5-1.9-7.6-2.6c-1.7-0.5-3.6-0.5-5.3,0c-1.1,0.3-2.1,0.8-2.2,2.1s0.7,2,1.7,2.5
	c2.2,1.2,4.6,1.9,7,2.9c1.9,0.7,3.7,1.8,5.3,3.2c3.6,3.6,3.7,9.5,0.1,13.1c-0.5,0.5-1,0.9-1.6,1.3c-3.3,2.1-7,2.3-10.7,2
	c-3-0.3-5.9-1.1-8.5-2.4c-0.7-0.2-1.1-0.9-1-1.6c0.1-1.9,0-3.8,0-5.8c0.6,0.2,1.2,0.5,1.7,0.9c3.1,1.8,6.2,3.2,9.9,3.1
	c0.8,0,1.7-0.2,2.5-0.4c1-0.3,1.7-1.1,1.9-2.1c0.1-1.1-0.4-2.1-1.3-2.7c-1.1-0.7-2.4-1.3-3.7-1.7c-2.2-0.8-4.3-1.6-6.4-2.7
	c-4.8-2.5-6.7-8.3-4.2-12.8c1.7-3,4.6-4.4,7.8-5c4.8-0.7,9.7,0,14.1,2c0.4,0.1,0.7,0.6,0.6,1C264.9,40.8,265,42.7,265,44.7z"/>
<path class="st0" d="M430.1,44.7c-2.9-1.4-6-2.3-9.2-2.8c-1.5-0.3-3.1,0-4.6,0.6c-1.8,0.9-2,2.6-0.4,3.8c1.1,0.8,2.3,1.3,3.5,1.7
	c2,0.8,4.1,1.6,6.1,2.5c1.6,0.7,3,1.8,4.1,3.2c1.1,1.2,1.7,2.8,1.6,4.5c-0.1,1.4,0.2,2.8-0.2,4.2c-0.9,3-3.4,5.3-6.4,6.1
	c-5.9,1.8-11.6,0.8-17-2c-0.3-0.1-0.6-0.5-0.6-0.8c0-2.1,0-4.2,0-6.4c1.6,0.9,3,1.7,4.5,2.4c2.7,1.4,5.7,1.9,8.7,1.4
	c1.3-0.1,2.4-1,2.7-2.3c0.2-1.2-0.5-2.3-1.9-3c-2.4-1.3-5-2-7.4-3c-1.8-0.7-3.4-1.7-4.8-2.9c-3.5-3.3-4.1-11.1,2.1-14.4
	c3.8-2,7.8-2,11.9-1.3c2.2,0.4,4.3,1,6.3,1.9c0.4,0.2,0.7,0.3,0.7,0.9C430,40.8,430.1,42.7,430.1,44.7z"/>
<path class="st0" d="M123.2,54.8c1.3-2.9,2.4-5.5,3.6-8.1l4.3-9.6c0.2-0.4,0.3-0.8,0.9-0.8c2.7,0,5.4,0,8.3,0
	c-1.2,2.6-2.3,5.1-3.5,7.6c-3.7,8.1-7.5,16.3-11.2,24.4c-0.3,0.7-1,1.2-1.8,1.2c-1.8,0.2-2.7-0.5-3.4-2.2c-4.7-10-9.5-20-14.3-30
	l-0.4-1c1.8,0,3.4,0,5.1,0c1.3,0,2.8-0.5,3.7,0.2s1.2,2.2,1.8,3.3c2.1,4.6,4.2,9.1,6.3,13.7C122.6,53.8,122.8,54.2,123.2,54.8z"/>
<path class="st0" d="M271.9,52.6c0-5,0-10.1,0-15.1c0-1,0.3-1.2,1.3-1.2c2,0.1,4.1,0,6.1,0c0.6,0,0.8,0.2,0.8,0.8
	c0,10.4,0,20.7,0,31.1c0,0.5-0.1,0.8-0.7,0.8c-2.2,0-4.5,0-6.7,0c-0.9,0-0.7-0.5-0.7-1L271.9,52.6z"/>
<path class="st0" d="M283.9,26l-7.6,6.7c-0.5,0.5-1.2,0.2-1.8,0.2s-1.3,0-2.1,0c1.2-2.3,2.3-4.4,3.4-6.6c0.2-0.4,0.5-0.4,0.8-0.4
	L283.9,26z"/>
</svg>
