<?xml version="1.0" encoding="UTF-8"?>
<svg width="58px" height="50px" viewBox="0 0 58 50" version="1.1" xmlns="http://www.w3.org/2000/svg" xmlns:xlink="http://www.w3.org/1999/xlink">
    <!-- Generator: Sketch 50.2 (55047) - http://www.bohemiancoding.com/sketch -->
    <title>004-folder</title>
    <desc>Created with Sketch.</desc>
    <defs></defs>
    <g id="Homepage" stroke="none" stroke-width="1" fill="none" fill-rule="evenodd">
        <g id="02---Gestão-de-Resíduos" transform="translate(-475.000000, -839.000000)" fill="#00BFA5" fill-rule="nonzero">
            <g id="004-folder" transform="translate(475.000000, 839.000000)">
                <path d="M54.9523945,5.01136364 L33.0718945,5.01136364 C32.6341758,5.01136364 32.2097109,4.85295455 31.877457,4.56590909 L27.8636758,1.0925 C27.0884922,0.422727273 26.0989805,0.0538636364 25.0774102,0.0538636364 L10.6963555,0.0538636364 C9.01594141,0.0538636364 7.64875,1.42534091 7.64875,3.11102273 L7.64875,7.19704545 L3.04760547,7.19704545 C1.36719141,7.19704545 0,8.56852273 0,10.2542045 L0,46.8889773 C0,48.5746591 1.36719141,49.9461364 3.04760547,49.9461364 L47.3035313,49.9461364 C48.9839453,49.9461364 50.3511367,48.5746591 50.3511367,46.8889773 L50.3511367,42.8038636 L54.9523945,42.8038636 C56.6328086,42.8038636 58,41.4323864 58,39.7467045 L58,8.06852273 C58,6.38272727 56.6328086,5.01136364 54.9523945,5.01136364 Z M47.9130977,46.8889773 C47.9130977,47.2261364 47.6396367,47.5004545 47.3035313,47.5004545 L3.04760547,47.5004545 C2.7115,47.5004545 2.43803906,47.2261364 2.43803906,46.8889773 L2.43803906,21.7531818 L47.9130977,21.7531818 L47.9129844,46.8889773 L47.9130977,46.8889773 Z M47.9130977,19.3075 L2.43803906,19.3075 L2.43803906,10.2543182 C2.43803906,9.91715909 2.7115,9.64284091 3.04760547,9.64284091 L17.4278672,9.64284091 C17.8661523,9.64284091 18.2901641,9.80090909 18.6220781,10.0881818 L22.6360859,13.5607955 C23.4104766,14.2306818 24.3999883,14.5995455 25.4225781,14.5995455 L47.3035313,14.5995455 C47.6396367,14.5995455 47.9130977,14.8738636 47.9130977,15.2110227 L47.9130977,19.3075 Z M55.5619609,39.7467045 C55.5619609,40.0838636 55.2885,40.3581818 54.9523945,40.3581818 L50.3511367,40.3581818 L50.3511367,15.2109091 C50.3511367,13.5252273 48.9839453,12.15375 47.3035313,12.15375 L25.4225781,12.15375 C24.984293,12.15375 24.5600547,11.9956818 24.2282539,11.7085227 L20.2143594,8.23613636 C19.4399687,7.56613636 18.450457,7.19715909 17.4278672,7.19715909 L10.0867891,7.19715909 L10.0867891,3.11102273 C10.0867891,2.77386364 10.36025,2.49954545 10.6963555,2.49954545 L25.0774102,2.49954545 C25.5151289,2.49954545 25.9395938,2.65795455 26.2718477,2.945 L30.2856289,6.41840909 C31.0608125,7.08806818 32.0503242,7.45693182 33.0718945,7.45693182 L54.9525078,7.45693182 C55.2886133,7.45693182 55.5620742,7.73125 55.5620742,8.06840909 L55.5620742,39.7467045 L55.5619609,39.7467045 Z" id="Shape"></path>
                <path d="M43.0631875,25.9217045 L35.7627773,25.9217045 C35.0895469,25.9217045 34.5437578,26.4692045 34.5437578,27.1445455 C34.5437578,27.8197727 35.0895469,28.3673864 35.7627773,28.3673864 L43.0631875,28.3673864 C43.736418,28.3673864 44.282207,27.8197727 44.282207,27.1445455 C44.282207,26.4690909 43.7365312,25.9217045 43.0631875,25.9217045 Z" id="Shape"></path>
                <path d="M43.0631875,31.7913636 L35.7627773,31.7913636 C35.0895469,31.7913636 34.5437578,32.3389773 34.5437578,33.0142045 C34.5437578,33.6894318 35.0895469,34.2370455 35.7627773,34.2370455 L43.0631875,34.2370455 C43.736418,34.2370455 44.282207,33.6894318 44.282207,33.0142045 C44.282207,32.3389773 43.7365312,31.7913636 43.0631875,31.7913636 Z" id="Shape"></path>
            </g>
        </g>
    </g>
</svg>