<?xml version="1.0" encoding="UTF-8"?>
<svg width="61px" height="42px" viewBox="0 0 61 42" version="1.1" xmlns="http://www.w3.org/2000/svg" xmlns:xlink="http://www.w3.org/1999/xlink">
    <!-- Generator: Sketch 50.2 (55047) - http://www.bohemiancoding.com/sketch -->
    <title>002-hammer</title>
    <desc>Created with Sketch.</desc>
    <defs></defs>
    <g id="Homepage" stroke="none" stroke-width="1" fill="none" fill-rule="evenodd">
        <g id="02---Gestão-de-Resíduos" transform="translate(-189.000000, -847.000000)" fill="#00BFA5" fill-rule="nonzero">
            <g id="002-hammer" transform="translate(189.000000, 847.000000)">
                <path d="M55.4079766,34.3848558 L37.5303392,34.3848558 C34.5124444,34.3848558 32.0572242,36.840076 32.0572242,39.8579708 C32.0572242,40.5383645 32.6107427,41.0920019 33.2912554,41.0920019 L59.6472982,41.0920019 C60.327692,41.0920019 60.8813294,40.5384834 60.8813294,39.8579708 C60.8810916,36.840076 58.4258713,34.3848558 55.4079766,34.3848558 Z M34.7252904,38.6663899 C35.1901033,37.5763567 36.2724074,36.8103489 37.5303392,36.8103489 L55.4079766,36.8103489 C56.6659084,36.8103489 57.7480936,37.5762378 58.2129064,38.6663899 L34.7252904,38.6663899 Z" id="Shape"></path>
                <path d="M54.8814503,25.4956218 L54.8814503,6.67361404 C56.3236901,6.29322612 57.3904172,4.97774269 57.3904172,3.41766472 C57.3904172,1.56091033 55.879924,0.050417154 54.0231696,0.050417154 L38.9150273,0.050417154 C37.0583918,0.050417154 35.5478986,1.56091033 35.5478986,3.41766472 C35.5478986,4.97774269 36.6146257,6.29310721 38.0568655,6.67361404 L38.0568655,12.9223684 L26.2952807,12.9223684 C26.2340429,12.3098713 25.7172671,11.8316218 25.0887173,11.8316218 L4.25359064,11.8316218 C1.9080039,11.8317407 0,13.7397446 0,16.0852125 C0,18.4306803 1.9080039,20.3386842 4.25359064,20.3386842 L25.0885984,20.3386842 C25.7171481,20.3386842 26.2340429,19.8603158 26.2951618,19.2479376 L38.0567466,19.2479376 L38.0567466,25.4957407 C36.6145068,25.8731559 35.5477797,27.1778187 35.5477797,28.7252924 C35.5477797,30.5819279 37.0582729,32.0924211 38.9149084,32.0924211 L54.0231696,32.0924211 C55.879924,32.0924211 57.3904172,30.5819279 57.3904172,28.7252924 C57.3904172,27.1778187 56.3235712,25.873037 54.8814503,25.4956218 Z M23.8758519,17.913191 L4.25359064,17.913191 C3.24560429,17.9130721 2.42561209,17.092961 2.42561209,16.0852125 C2.42561209,15.0772261 3.2457232,14.2573528 4.25359064,14.2573528 L23.8758519,14.2573528 L23.8758519,17.913191 Z M37.9733918,3.41766472 C37.9733918,2.89839181 38.3957544,2.47591033 38.9150273,2.47591033 L54.0232885,2.47591033 C54.5424425,2.47591033 54.9650429,2.8982729 54.9650429,3.41766472 C54.9650429,3.93705653 54.5426803,4.3594191 54.0232885,4.3594191 L38.9150273,4.3594191 C38.3958733,4.3594191 37.9733918,3.93693762 37.9733918,3.41766472 Z M52.4558382,6.78491228 L52.4558382,25.3852749 L40.4822398,25.3852749 L40.4822398,6.78491228 L52.4558382,6.78491228 Z M26.301345,16.8223255 L26.301345,15.3480994 L38.0567466,15.3480994 L38.0567466,16.8223255 L26.301345,16.8223255 Z M54.0232885,29.6669279 L38.9150273,29.6669279 C38.3958733,29.6669279 37.9733918,29.2446842 37.9733918,28.7252924 C37.9733918,28.2124405 38.3870741,27.8108869 38.9150273,27.8108869 L54.0232885,27.8108869 C54.5513606,27.8108869 54.9650429,28.2125595 54.9650429,28.7252924 C54.964924,29.2444464 54.5425614,29.6669279 54.0232885,29.6669279 Z" id="Shape"></path>
                <path d="M50.0874211,14.6285848 C49.4176101,14.6285848 48.8746745,15.1716394 48.8746745,15.8413314 L48.8746745,22.9966433 C48.8746745,23.6663353 49.4176101,24.2093899 50.0874211,24.2093899 C50.757232,24.2093899 51.3001676,23.6663353 51.3001676,22.9966433 L51.3001676,15.8413314 C51.3001676,15.1717583 50.757232,14.6285848 50.0874211,14.6285848 Z" id="Shape"></path>
                <path d="M50.0874211,10.8690585 C49.4176101,10.8690585 48.8746745,11.4121131 48.8746745,12.0818051 L48.8746745,12.4456647 C48.8746745,13.1153567 49.4176101,13.6584113 50.0874211,13.6584113 C50.757232,13.6584113 51.3001676,13.1153567 51.3001676,12.4456647 L51.3001676,12.0818051 C51.3001676,11.4121131 50.757232,10.8690585 50.0874211,10.8690585 Z" id="Shape"></path>
            </g>
        </g>
    </g>
</svg>