<?xml version="1.0" encoding="UTF-8"?>
<svg width="39px" height="49px" viewBox="0 0 39 49" version="1.1" xmlns="http://www.w3.org/2000/svg" xmlns:xlink="http://www.w3.org/1999/xlink">
    <!-- Generator: Sketch 50.2 (55047) - http://www.bohemiancoding.com/sketch -->
    <title>006-interface</title>
    <desc>Created with Sketch.</desc>
    <defs></defs>
    <g id="Homepage" stroke="none" stroke-width="1" fill="none" fill-rule="evenodd">
        <g id="02---Gestão-de-Resíduos" transform="translate(-762.000000, -840.000000)" fill="#00BFA5" fill-rule="nonzero">
            <g id="006-interface" transform="translate(762.000000, 840.000000)">
                <path d="M35.1306074,0 L8.97551758,0 C7.24309961,0 5.83387109,1.40932422 5.83387109,3.14174219 L5.83387109,5.82516211 L2.2509375,5.82516211 C1.01464453,5.82516211 0.00890039062,6.83100195 0.00890039062,8.06719922 L0.00890039062,46.7580586 C0.00890039062,47.9943516 1.01474023,49 2.2509375,49 L30.2043848,49 C31.4406777,49 32.4464219,47.9942559 32.4464219,46.7580586 L32.4464219,43.1748379 L35.1305117,43.1748379 C36.8629297,43.1748379 38.2723496,41.765418 38.2723496,40.033 L38.2723496,3.14174219 C38.2723496,1.40932422 36.8629297,0 35.1306074,0 Z M30.1838086,46.7373867 L2.27151367,46.7373867 L2.27151367,8.08758398 L20.2860957,8.08758398 L20.2860957,15.4247598 C20.2860957,16.836668 21.4347246,17.9852969 22.8466328,17.9852969 L30.1838086,17.9852969 L30.1838086,46.7373867 Z M22.5489004,9.68764453 L28.5840352,15.7227793 L22.8467285,15.7227793 C22.682502,15.7227793 22.5489004,15.5891777 22.5489004,15.4249512 L22.5489004,9.68764453 Z M35.1306074,40.9121289 L32.4465176,40.9121289 L32.4465176,16.8541816 C32.4465176,16.8449941 32.445082,16.8367637 32.4444121,16.8280547 C32.4377129,16.5428594 32.3250703,16.2641719 32.1151934,16.0541992 L22.2173848,6.15648633 C22.2169062,6.15600781 22.216332,6.1557207 22.2159492,6.15524219 C22.0113359,5.95129883 21.7291074,5.82525781 21.417498,5.82525781 L8.09638867,5.82525781 L8.09638867,3.14174219 C8.09638867,2.65710156 8.49068555,2.26270898 8.97542188,2.26270898 L35.130416,2.26270898 C35.6151523,2.26270898 36.0095449,2.65700586 36.0095449,3.14174219 L36.0095449,40.033 L36.0096406,40.033 C36.0097363,40.5177363 35.6154395,40.9121289 35.1306074,40.9121289 Z" id="Shape"></path>
            </g>
        </g>
    </g>
</svg>