<?xml version="1.0" encoding="UTF-8"?>
<svg width="53px" height="40px" viewBox="0 0 53 40" version="1.1" xmlns="http://www.w3.org/2000/svg" xmlns:xlink="http://www.w3.org/1999/xlink">
    <!-- Generator: Sketch 50.2 (55047) - http://www.bohemiancoding.com/sketch -->
    <title>005-time</title>
    <desc>Created with Sketch.</desc>
    <defs></defs>
    <g id="Homepage" stroke="none" stroke-width="1" fill="none" fill-rule="evenodd">
        <g id="02---Gestão-de-Resíduos" transform="translate(-1023.000000, -849.000000)" fill="#00BFA5" fill-rule="nonzero">
            <g id="005-time" transform="translate(1023.000000, 849.000000)">
                <ellipse id="Oval" cx="42.7812281" cy="14.1272539" rx="1.27158674" ry="1.27544041"></ellipse>
                <ellipse id="Oval" cx="34.6148889" cy="14.1272539" rx="1.27158674" ry="1.27544041"></ellipse>
                <ellipse id="Oval" cx="26.4484464" cy="14.1272539" rx="1.27158674" ry="1.27544041"></ellipse>
                <ellipse id="Oval" cx="18.2821072" cy="14.1272539" rx="1.27158674" ry="1.27544041"></ellipse>
                <ellipse id="Oval" cx="10.1156647" cy="14.1272539" rx="1.27158674" ry="1.27544041"></ellipse>
                <ellipse id="Oval" cx="42.7812281" cy="22.3184456" rx="1.27158674" ry="1.27544041"></ellipse>
                <ellipse id="Oval" cx="34.6148889" cy="22.3184456" rx="1.27158674" ry="1.27544041"></ellipse>
                <ellipse id="Oval" cx="26.4484464" cy="22.3184456" rx="1.27158674" ry="1.27544041"></ellipse>
                <ellipse id="Oval" cx="10.1156647" cy="22.3184456" rx="1.27158674" ry="1.27544041"></ellipse>
                <ellipse id="Oval" cx="42.7812281" cy="30.5095337" rx="1.27158674" ry="1.27544041"></ellipse>
                <ellipse id="Oval" cx="34.6148889" cy="30.5095337" rx="1.27158674" ry="1.27544041"></ellipse>
                <ellipse id="Oval" cx="26.4484464" cy="30.5095337" rx="1.27158674" ry="1.27544041"></ellipse>
                <ellipse id="Oval" cx="18.2821072" cy="30.5095337" rx="1.27158674" ry="1.27544041"></ellipse>
                <ellipse id="Oval" cx="10.1156647" cy="30.5095337" rx="1.27158674" ry="1.27544041"></ellipse>
                <path d="M22.1194932,17.373057 L14.444308,17.373057 C13.8405419,17.373057 13.3512476,17.8638342 13.3512476,18.4694301 L13.3512476,26.1679793 C13.3512476,26.7735751 13.8405419,27.2643523 14.444308,27.2643523 L22.1194932,27.2643523 C22.7232593,27.2643523 23.2125536,26.7735751 23.2125536,26.1679793 L23.2125536,18.4696373 C23.2125536,17.8639378 22.7231559,17.373057 22.1194932,17.373057 Z M21.0264327,25.0715026 L15.5373684,25.0715026 L15.5373684,19.5659067 L21.0263294,19.5659067 L21.0263294,25.0715026 L21.0264327,25.0715026 Z" id="Shape"></path>
                <path d="M49.253117,2.70611399 L41.2247018,2.70611399 L41.2247018,1.29896373 C41.2247018,0.62611399 40.680961,0.0807253886 40.0101442,0.0807253886 C39.3395341,0.0807253886 38.7955867,0.626217617 38.7955867,1.29896373 L38.7955867,2.70611399 L32.1833977,2.70611399 L32.1833977,1.29896373 C32.1833977,0.62611399 31.6395536,0.0807253886 30.9688402,0.0807253886 C30.2980234,0.0807253886 29.7542827,0.626217617 29.7542827,1.29896373 L29.7542827,2.70611399 L23.1423002,2.70611399 L23.1423002,1.29896373 C23.1423002,0.62611399 22.5985595,0.0807253886 21.9277427,0.0807253886 C21.2569259,0.0807253886 20.7131852,0.626217617 20.7131852,1.29896373 L20.7131852,2.70611399 L14.1009961,2.70611399 L14.1009961,1.29896373 C14.1009961,0.62611399 13.5572554,0.0807253886 12.8864386,0.0807253886 C12.2156218,0.0807253886 11.6718811,0.626217617 11.6718811,1.29896373 L11.6718811,2.70611399 L3.64336257,2.70611399 C1.63452827,2.70611399 0,4.34549223 0,6.36062176 L0,36.2645596 C0,38.2796891 1.63452827,39.919171 3.6435692,39.919171 L49.2532203,39.919171 C51.2622612,39.919171 52.8967895,38.2796891 52.8967895,36.2645596 L52.8967895,6.36062176 C52.8966862,4.34549223 51.2620546,2.70611399 49.253117,2.70611399 Z M49.253117,37.4829016 L3.6435692,37.4829016 C2.97388889,37.4829016 2.4290117,36.9363731 2.4290117,36.2646632 L2.4290117,6.36062176 C2.4290117,5.68891192 2.97388889,5.14238342 3.6435692,5.14238342 L11.6719844,5.14238342 L11.6719844,6.54943005 C11.6719844,7.22207254 12.2157251,7.76766839 12.8865419,7.76766839 C13.5573587,7.76766839 14.1010994,7.22217617 14.1010994,6.54943005 L14.1010994,5.14238342 L20.7132885,5.14238342 L20.7132885,6.54943005 C20.7132885,7.22207254 21.2570292,7.76766839 21.927846,7.76766839 C22.5986628,7.76766839 23.1424035,7.22217617 23.1424035,6.54943005 L23.1424035,5.14238342 L29.754386,5.14238342 L29.754386,6.54943005 C29.754386,7.22207254 30.2981267,7.76766839 30.9689435,7.76766839 C31.6395536,7.76766839 32.183501,7.22217617 32.183501,6.54943005 L32.183501,5.14238342 L38.7956901,5.14238342 L38.7956901,6.54943005 C38.7956901,7.22207254 39.3395341,7.76766839 40.0102476,7.76766839 C40.6810643,7.76766839 41.2248051,7.22217617 41.2248051,6.54943005 L41.2248051,5.14238342 L49.2532203,5.14238342 C49.9229006,5.14238342 50.4677778,5.68891192 50.4677778,6.36062176 L50.4677778,36.2645596 L50.4678811,36.2645596 C50.4676745,36.9363731 49.9227973,37.4829016 49.253117,37.4829016 Z" id="Shape"></path>
            </g>
        </g>
    </g>
</svg>